<svg width="177" height="108" fill="none" xmlns="http://www.w3.org/2000/svg"><g clip-path="url(#a)" fill="#fff"><path d="M23.283 64.128c-1.685 0-3.19-.384-4.512-1.152a8.752 8.752 0 0 1-3.136-3.168c-.746-1.344-1.12-2.859-1.12-4.544 0-1.728.363-3.264 1.088-4.608.747-1.344 1.76-2.39 3.04-3.136 1.28-.768 2.763-1.152 4.448-1.152 1.259 0 2.422.245 3.488.736 1.067.49 2.016 1.227 2.848 2.208.278.299.374.619.288.96-.064.341-.277.64-.64.896-.256.192-.554.256-.896.192-.341-.064-.64-.245-.896-.544-1.13-1.216-2.528-1.824-4.192-1.824-1.13 0-2.133.267-3.008.8-.853.533-1.525 1.27-2.016 2.208-.47.917-.704 2.005-.704 3.264 0 1.195.246 2.261.736 3.2a5.922 5.922 0 0 0 2.112 2.24c.896.533 1.92.8 3.072.8.79 0 1.494-.096 2.112-.288a4.577 4.577 0 0 0 1.664-.928c.299-.256.608-.395.928-.416.342-.021.64.075.896.288.32.277.502.587.544.928.043.341-.074.64-.352.896-1.536 1.43-3.466 2.144-5.792 2.144ZM38.568 64c-.896 0-1.697-.245-2.4-.736-.704-.49-1.26-1.163-1.664-2.016-.384-.875-.576-1.877-.576-3.008V40.448c0-.427.128-.768.384-1.024.277-.277.629-.416 1.056-.416.447 0 .8.139 1.055.416.278.256.416.597.416 1.024V58.24c0 .832.16 1.515.48 2.048.342.533.758.8 1.248.8h.8c.406 0 .726.139.96.416.235.256.352.608.352 1.056 0 .427-.18.779-.544 1.056-.34.256-.789.384-1.343.384h-.224Zm12.342.128c-1.707 0-3.232-.373-4.576-1.12a8.505 8.505 0 0 1-3.136-3.136c-.747-1.344-1.12-2.88-1.12-4.608 0-1.75.373-3.285 1.12-4.608a8.201 8.201 0 0 1 3.136-3.136c1.344-.768 2.87-1.152 4.576-1.152 1.706 0 3.221.384 4.544 1.152a7.92 7.92 0 0 1 3.136 3.136c.768 1.323 1.162 2.859 1.184 4.608 0 1.728-.384 3.264-1.152 4.608a8.506 8.506 0 0 1-3.136 3.136c-1.323.747-2.848 1.12-4.576 1.12Zm0-2.624c1.173 0 2.208-.267 3.104-.8a5.684 5.684 0 0 0 2.112-2.208c.512-.939.768-2.016.768-3.232 0-1.216-.256-2.293-.768-3.232-.512-.96-1.216-1.707-2.112-2.24-.896-.533-1.93-.8-3.104-.8-1.152 0-2.187.267-3.104.8-.896.533-1.6 1.28-2.112 2.24-.512.939-.768 2.016-.768 3.232 0 1.216.256 2.293.768 3.232a5.684 5.684 0 0 0 2.112 2.208c.917.533 1.952.8 3.104.8Zm36.92 2.528c-.426 0-.778-.139-1.055-.416-.278-.277-.416-.63-.416-1.056v-9.184c0-1.408-.363-2.485-1.088-3.232-.704-.747-1.622-1.12-2.752-1.12-1.195 0-2.176.416-2.944 1.248-.747.81-1.12 1.867-1.12 3.168h-2.496c.021-1.408.33-2.645.928-3.712a6.381 6.381 0 0 1 2.496-2.496c1.066-.597 2.272-.896 3.616-.896 1.237 0 2.325.277 3.264.832.96.555 1.706 1.365 2.24 2.432.533 1.045.8 2.304.8 3.776v9.184c0 .427-.139.779-.416 1.056-.256.277-.608.416-1.056.416Zm-21.76 0c-.426 0-.778-.139-1.055-.416-.278-.277-.416-.63-.416-1.056V48c0-.448.138-.8.416-1.056.277-.277.63-.416 1.056-.416.448 0 .8.139 1.056.416.277.256.416.608.416 1.056v14.56c0 .427-.139.779-.416 1.056-.256.277-.608.416-1.056.416Zm10.913 0c-.427 0-.779-.139-1.056-.416-.278-.277-.416-.63-.416-1.056v-9.184c0-1.408-.363-2.485-1.088-3.232-.704-.747-1.622-1.12-2.752-1.12-1.195 0-2.187.405-2.976 1.216-.768.81-1.152 1.845-1.152 3.104h-1.92c.021-1.365.31-2.57.864-3.616.576-1.067 1.354-1.899 2.336-2.496.981-.597 2.09-.896 3.328-.896 1.237 0 2.325.277 3.264.832.96.555 1.706 1.365 2.24 2.432.533 1.045.8 2.304.8 3.776v9.184c0 .427-.139.779-.416 1.056-.256.277-.608.416-1.056.416Zm25.869.096c-1.771 0-3.339-.373-4.704-1.12a8.435 8.435 0 0 1-3.168-3.136c-.768-1.344-1.152-2.88-1.152-4.608 0-1.75.362-3.285 1.088-4.608.725-1.344 1.728-2.39 3.008-3.136 1.28-.768 2.762-1.152 4.448-1.152 1.642 0 3.061.373 4.256 1.12 1.194.725 2.112 1.739 2.752 3.04.64 1.28.96 2.763.96 4.448 0 .363-.128.672-.384.928-.235.235-.555.352-.96.352H95.844v-2.368h13.184l-1.312.928c-.022-1.13-.246-2.144-.672-3.04-.427-.896-1.035-1.6-1.824-2.112-.79-.512-1.739-.768-2.848-.768-1.216 0-2.272.277-3.168.832A5.481 5.481 0 0 0 97.188 52c-.47.96-.704 2.048-.704 3.264 0 1.216.266 2.304.8 3.264a6.26 6.26 0 0 0 2.24 2.24c.96.555 2.069.832 3.328.832.682 0 1.386-.128 2.112-.384.746-.256 1.333-.555 1.76-.896.298-.235.618-.352.96-.352.341-.021.64.075.896.288.32.299.49.63.512.992.021.341-.128.64-.448.896-.726.576-1.632 1.056-2.72 1.44-1.067.363-2.091.544-3.072.544Zm12.997-11.008c.043-1.301.373-2.464.992-3.488a7.083 7.083 0 0 1 2.528-2.432c1.045-.597 2.197-.896 3.456-.896 1.173 0 2.048.181 2.624.544.597.363.821.821.672 1.376-.064.32-.192.555-.384.704a1.399 1.399 0 0 1-.672.224c-.256 0-.533-.021-.832-.064-1.301-.213-2.464-.181-3.488.096s-1.835.757-2.432 1.44c-.597.683-.896 1.515-.896 2.496h-1.568Zm.096 10.88c-.448 0-.8-.117-1.056-.352-.256-.256-.384-.619-.384-1.088V47.936c0-.448.128-.8.384-1.056s.608-.384 1.056-.384c.491 0 .853.128 1.088.384.256.235.384.587.384 1.056V62.56c0 .448-.128.8-.384 1.056-.235.256-.597.384-1.088.384Zm20.338.128c-1.685 0-3.189-.384-4.512-1.152a8.758 8.758 0 0 1-3.136-3.168c-.746-1.344-1.12-2.859-1.12-4.544 0-1.728.363-3.264 1.088-4.608.747-1.344 1.76-2.39 3.04-3.136 1.28-.768 2.763-1.152 4.448-1.152 1.259 0 2.422.245 3.488.736 1.067.49 2.016 1.227 2.848 2.208.278.299.374.619.288.96-.064.341-.277.64-.64.896-.256.192-.554.256-.896.192-.341-.064-.64-.245-.896-.544-1.13-1.216-2.528-1.824-4.192-1.824-1.13 0-2.133.267-3.008.8-.853.533-1.525 1.27-2.016 2.208-.469.917-.704 2.005-.704 3.264 0 1.195.246 2.261.736 3.2a5.922 5.922 0 0 0 2.112 2.24c.896.533 1.92.8 3.072.8.79 0 1.494-.096 2.112-.288a4.568 4.568 0 0 0 1.664-.928c.299-.256.608-.395.928-.416.342-.021.64.075.896.288.32.277.502.587.544.928.043.341-.074.64-.352.896-1.536 1.43-3.466 2.144-5.792 2.144Zm19.413 0c-1.771 0-3.339-.373-4.704-1.12a8.435 8.435 0 0 1-3.168-3.136c-.768-1.344-1.152-2.88-1.152-4.608 0-1.75.362-3.285 1.088-4.608.725-1.344 1.728-2.39 3.008-3.136 1.28-.768 2.762-1.152 4.448-1.152 1.642 0 3.061.373 4.256 1.12 1.194.725 2.112 1.739 2.752 3.04.64 1.28.96 2.763.96 4.448 0 .363-.128.672-.384.928-.235.235-.555.352-.96.352h-13.152v-2.368h13.184l-1.312.928c-.022-1.13-.246-2.144-.672-3.04-.427-.896-1.035-1.6-1.824-2.112-.79-.512-1.739-.768-2.848-.768-1.216 0-2.272.277-3.168.832A5.477 5.477 0 0 0 150.032 52c-.47.96-.704 2.048-.704 3.264 0 1.216.266 2.304.8 3.264a6.254 6.254 0 0 0 2.24 2.24c.96.555 2.069.832 3.328.832.682 0 1.386-.128 2.112-.384.746-.256 1.333-.555 1.76-.896.298-.235.618-.352.96-.352.341-.021.64.075.896.288.32.299.49.63.512.992.021.341-.128.64-.448.896-.726.576-1.632 1.056-2.72 1.44-1.067.363-2.091.544-3.072.544ZM124.252 68c-.619 0-1.175.376-1.425.943C117.085 81.934 104.086 91 88.969 91c-15.118 0-28.117-9.066-33.86-22.057A1.566 1.566 0 0 0 53.686 68c-1.064 0-1.799 1.063-1.372 2.037C58.494 84.145 72.58 94 88.97 94c16.388 0 30.474-9.855 36.655-23.963.427-.974-.308-2.037-1.372-2.037ZM52.513 43c.665 0 1.25-.434 1.467-1.063C58.982 27.425 72.758 17 88.969 17c16.21 0 29.986 10.425 34.988 24.937A1.562 1.562 0 0 0 125.424 43c1.009 0 1.737-.967 1.411-1.922C121.462 25.328 106.538 14 88.969 14c-17.57 0-32.494 11.328-37.867 27.078-.326.955.402 1.922 1.41 1.922Z"/></g><defs><clipPath id="a"><path fill="#fff" d="M0 0h177v108H0z"/></clipPath></defs></svg>